<mxfile host="app.diagrams.net" modified="2023-11-03T04:17:54.798Z" agent="Mozilla/5.0 (Macintosh; Intel Mac OS X 10_15_7) AppleWebKit/537.36 (KHTML, like Gecko) Chrome/117.0.0.0 Safari/537.36" version="22.0.8" etag="6D-6GwBODE7qmA4KA2Bv" type="github">
  <diagram name="Page-1" id="kttetFa5nGkmvOsE1SWk">
    <mxGraphModel>
      <root>
        <mxCell id="0" />
        <mxCell id="1" parent="0" />
      </root>
    </mxGraphModel>
  </diagram>
</mxfile>
